<?xml version="1.0" encoding="UTF-8"?>
<svg xmlns="http://www.w3.org/2000/svg" viewBox="0 0 2400 600" preserveAspectRatio="xMidYMid slice" aria-label="Chicago skyline silhouette">
  <defs>
    <linearGradient id="skygrad" x1="0" y1="0" x2="0" y2="1">
      <stop offset="0%" stop-color="#1a1612"/>
      <stop offset="55%" stop-color="#241c14"/>
      <stop offset="100%" stop-color="#3a2a1c"/>
    </linearGradient>
    <radialGradient id="glow" cx="50%" cy="78%" r="55%">
      <stop offset="0%" stop-color="#c66b3d" stop-opacity="0.35"/>
      <stop offset="60%" stop-color="#a14a26" stop-opacity="0.10"/>
      <stop offset="100%" stop-color="#1a1612" stop-opacity="0"/>
    </radialGradient>
    <filter id="grain">
      <feTurbulence type="fractalNoise" baseFrequency="0.9" numOctaves="2" seed="3"/>
      <feColorMatrix values="0 0 0 0 0 0 0 0 0 0 0 0 0 0 0 0 0 0 0.4 0"/>
      <feComposite in2="SourceGraphic" operator="in"/>
    </filter>
    <!-- star field for night sky -->
    <pattern id="stars" x="0" y="0" width="240" height="180" patternUnits="userSpaceOnUse">
      <circle cx="40" cy="35" r="0.7" fill="#f3ede2" opacity="0.5"/>
      <circle cx="180" cy="80" r="0.5" fill="#f3ede2" opacity="0.4"/>
      <circle cx="100" cy="120" r="0.4" fill="#f3ede2" opacity="0.3"/>
      <circle cx="210" cy="20" r="0.6" fill="#f3ede2" opacity="0.5"/>
      <circle cx="60" cy="160" r="0.4" fill="#f3ede2" opacity="0.35"/>
    </pattern>
  </defs>

  <!-- sky -->
  <rect width="2400" height="600" fill="url(#skygrad)"/>
  <rect width="2400" height="380" fill="url(#stars)"/>
  <!-- warm horizon glow -->
  <rect width="2400" height="600" fill="url(#glow)"/>

  <!-- lake reflection band (subtle) -->
  <rect y="500" width="2400" height="100" fill="#0e0a06" opacity="0.6"/>

  <!-- back ridge of buildings (lighter, distant) -->
  <g fill="#2a2018" opacity="0.85">
    <rect x="100" y="380" width="60" height="120"/>
    <rect x="170" y="360" width="40" height="140"/>
    <rect x="220" y="395" width="80" height="105"/>
    <rect x="310" y="345" width="50" height="155"/>
    <rect x="2100" y="370" width="55" height="130"/>
    <rect x="2170" y="385" width="70" height="115"/>
    <rect x="2250" y="355" width="45" height="145"/>
    <rect x="2305" y="380" width="60" height="120"/>
  </g>

  <!-- FOREGROUND SKYLINE -->
  <g fill="#0e0a06">

    <!-- left side buildings -->
    <rect x="380" y="340" width="70" height="160"/>
    <rect x="460" y="310" width="55" height="190"/>
    <rect x="525" y="355" width="80" height="145"/>

    <!-- 875 N Michigan (former John Hancock) - tapered with crosses -->
    <polygon points="620,500 620,200 700,170 780,200 780,500" fill="#0e0a06"/>
    <!-- antenna spires -->
    <rect x="650" y="120" width="3" height="50" fill="#0e0a06"/>
    <rect x="745" y="115" width="3" height="55" fill="#0e0a06"/>
    <!-- X bracing detail (subtle terracotta accents at night) -->
    <line x1="630" y1="240" x2="770" y2="320" stroke="#a14a26" stroke-width="1" opacity="0.5"/>
    <line x1="770" y1="240" x2="630" y2="320" stroke="#a14a26" stroke-width="1" opacity="0.5"/>
    <line x1="635" y1="340" x2="765" y2="410" stroke="#a14a26" stroke-width="1" opacity="0.4"/>
    <line x1="765" y1="340" x2="635" y2="410" stroke="#a14a26" stroke-width="1" opacity="0.4"/>

    <!-- mid buildings -->
    <rect x="800" y="370" width="60" height="130"/>
    <rect x="870" y="320" width="75" height="180"/>
    <rect x="955" y="350" width="45" height="150"/>
    <rect x="1010" y="290" width="65" height="210"/>

    <!-- Trump Tower - tiered setbacks, slim -->
    <polygon points="1090,500 1090,260 1120,260 1120,220 1155,220 1155,170 1175,170 1175,140 1185,140 1185,500" fill="#0e0a06"/>
    <rect x="1180" y="80" width="3" height="60"/>

    <!-- Aon Center - tall plain white rectangle (lighter shade) -->
    <rect x="1200" y="180" width="68" height="320" fill="#1f1810"/>

    <!-- buildings between -->
    <rect x="1280" y="350" width="55" height="150"/>
    <rect x="1345" y="310" width="65" height="190"/>
    <rect x="1420" y="370" width="50" height="130"/>

    <!-- WILLIS TOWER (Sears) - tallest, recognizable bundled tubes shape -->
    <!-- bundled tube setbacks -->
    <g>
      <!-- base (widest) -->
      <rect x="1490" y="330" width="180" height="170"/>
      <!-- second tier (slightly narrower) -->
      <rect x="1510" y="240" width="140" height="170"/>
      <!-- third tier -->
      <rect x="1530" y="160" width="100" height="180"/>
      <!-- top tier -->
      <rect x="1550" y="100" width="60" height="100"/>
      <!-- antennas -->
      <rect x="1565" y="20" width="3" height="80"/>
      <rect x="1592" y="10" width="3" height="90"/>
      <!-- antenna lights (dot accents) -->
      <circle cx="1566.5" cy="25" r="2" fill="#c66b3d"/>
      <circle cx="1593.5" cy="15" r="2" fill="#c66b3d"/>
    </g>

    <!-- right side buildings -->
    <rect x="1690" y="290" width="55" height="210"/>
    <rect x="1755" y="340" width="70" height="160"/>
    <rect x="1835" y="310" width="60" height="190"/>
    <rect x="1905" y="355" width="80" height="145"/>
    <rect x="1995" y="280" width="50" height="220"/>
    <rect x="2055" y="340" width="45" height="160"/>

    <!-- far right -->
    <rect x="2110" y="370" width="55" height="130"/>
    <rect x="2175" y="345" width="40" height="155"/>

  </g>

  <!-- window lights (subtle scatter, very small) -->
  <g fill="#c66b3d" opacity="0.45">
    <!-- left buildings -->
    <rect x="390" y="380" width="2" height="2"/>
    <rect x="395" y="395" width="2" height="2"/>
    <rect x="410" y="385" width="2" height="2"/>
    <rect x="470" y="350" width="2" height="2"/>
    <rect x="478" y="370" width="2" height="2"/>
    <rect x="490" y="360" width="2" height="2"/>
    <rect x="540" y="380" width="2" height="2"/>
    <rect x="555" y="395" width="2" height="2"/>
    <!-- hancock area -->
    <rect x="640" y="280" width="2" height="2"/>
    <rect x="660" y="290" width="2" height="2"/>
    <rect x="680" y="270" width="2" height="2"/>
    <rect x="720" y="280" width="2" height="2"/>
    <rect x="740" y="300" width="2" height="2"/>
    <rect x="700" y="360" width="2" height="2"/>
    <rect x="660" y="380" width="2" height="2"/>
    <rect x="730" y="390" width="2" height="2"/>
    <!-- mid -->
    <rect x="880" y="350" width="2" height="2"/>
    <rect x="900" y="370" width="2" height="2"/>
    <rect x="920" y="390" width="2" height="2"/>
    <rect x="1025" y="320" width="2" height="2"/>
    <rect x="1045" y="350" width="2" height="2"/>
    <rect x="1060" y="380" width="2" height="2"/>
    <!-- aon center -->
    <rect x="1215" y="220" width="2" height="2"/>
    <rect x="1225" y="240" width="2" height="2"/>
    <rect x="1235" y="260" width="2" height="2"/>
    <rect x="1250" y="280" width="2" height="2"/>
    <rect x="1215" y="320" width="2" height="2"/>
    <rect x="1240" y="350" width="2" height="2"/>
    <rect x="1225" y="400" width="2" height="2"/>
    <rect x="1250" y="430" width="2" height="2"/>
    <!-- willis -->
    <rect x="1510" y="180" width="2" height="2"/>
    <rect x="1545" y="200" width="2" height="2"/>
    <rect x="1580" y="220" width="2" height="2"/>
    <rect x="1525" y="260" width="2" height="2"/>
    <rect x="1565" y="280" width="2" height="2"/>
    <rect x="1605" y="300" width="2" height="2"/>
    <rect x="1510" y="350" width="2" height="2"/>
    <rect x="1550" y="370" width="2" height="2"/>
    <rect x="1590" y="390" width="2" height="2"/>
    <rect x="1630" y="410" width="2" height="2"/>
    <rect x="1525" y="430" width="2" height="2"/>
    <rect x="1610" y="450" width="2" height="2"/>
    <rect x="1545" y="470" width="2" height="2"/>
    <!-- right -->
    <rect x="1705" y="330" width="2" height="2"/>
    <rect x="1725" y="370" width="2" height="2"/>
    <rect x="1710" y="420" width="2" height="2"/>
    <rect x="1770" y="380" width="2" height="2"/>
    <rect x="1850" y="350" width="2" height="2"/>
    <rect x="1870" y="400" width="2" height="2"/>
    <rect x="1920" y="380" width="2" height="2"/>
    <rect x="1940" y="420" width="2" height="2"/>
    <rect x="2010" y="320" width="2" height="2"/>
    <rect x="2025" y="370" width="2" height="2"/>
    <rect x="2015" y="420" width="2" height="2"/>
  </g>

  <!-- water reflections (just hints) -->
  <g opacity="0.15">
    <rect x="1490" y="510" width="180" height="20" fill="#a14a26"/>
    <rect x="1200" y="515" width="68" height="15" fill="#a14a26"/>
    <rect x="620" y="520" width="160" height="10" fill="#a14a26"/>
  </g>
</svg>
